<svg width="746" height="473" viewBox="0 0 746 473" fill="none" xmlns="http://www.w3.org/2000/svg">
<rect width="746" height="473" fill="white"/>
<path id="v1" d="M174 61C153.84 87.7159 189.608 137.458 157 145C138.11 149.369 128.995 125.11 110 129C84.8249 134.156 126.699 201.114 71 182C15.3014 162.887 -13.5101 154.9 7.99998 223C18.5177 256.854 70.3519 264.979 85 307C101.041 353.017 57 342 71 431C85 520 319.031 420.856 344 465C357.186 488.312 484.377 455.605 478 412C486.181 359.782 511.475 349.873 566 341C620.525 332.127 660.248 386.939 704 355C738.675 329.687 745 253 745 253C745 253 733.868 182.845 711 145C686.72 104.819 671.14 52.3301 625 61C592.428 67.1204 599.123 120.888 566 122C526.254 123.334 503.343 71.0001 507 39C510.657 7.00002 441.661 -9.26698 402 7.00004C377.216 17.1652 379.585 48.0647 354 56C320.337 66.4408 305.233 23.8879 270 23C229.692 21.9843 198.287 28.8151 174 61Z" stroke="black" stroke-width="0.4"/>
<path id="v2" d="M187.709 73.4036C168.88 98.3552 202.287 144.812 171.832 151.856C154.189 155.937 145.676 133.28 127.936 136.913C104.423 141.728 143.532 204.264 91.5114 186.413C39.4911 168.562 12.5824 161.102 32.6719 224.705C42.495 256.323 90.906 263.912 104.587 303.158C119.569 346.136 78.4359 335.846 91.5114 418.969C104.587 502.091 323.163 409.495 346.482 450.723C358.797 472.495 477.588 441.949 471.633 401.223C479.274 352.454 502.898 343.2 553.821 334.912C604.745 326.625 641.845 377.817 682.708 347.988C715.093 324.347 721 252.724 721 252.724C721 252.724 710.604 187.201 689.245 151.856C666.568 114.329 652.018 65.3063 608.925 73.4036C578.504 79.1198 584.757 129.337 553.821 130.375C516.7 131.621 495.302 82.7433 498.718 52.8565C502.133 22.9698 437.693 7.77708 400.652 22.9698C377.505 32.4636 379.717 61.3225 355.822 68.7338C324.382 78.4851 310.276 38.7424 277.369 37.9132C239.723 36.9645 210.393 43.3442 187.709 73.4036Z" stroke="#7E7E7E" stroke-opacity="0.37" stroke-width="0.933959"/>
<path id="v3" d="M196.031 80.7255C178.096 104.492 209.916 148.743 180.908 155.453C164.102 159.34 155.994 137.759 139.096 141.219C116.7 145.806 153.951 205.372 104.401 188.369C54.8506 171.365 29.2195 164.26 48.3551 224.843C57.7118 254.96 103.824 262.188 116.855 299.57C131.126 340.508 91.9462 330.707 104.401 409.882C116.855 489.058 325.053 400.858 347.265 440.129C358.995 460.868 472.146 431.772 466.473 392.98C473.751 346.526 496.253 337.711 544.759 329.817C593.265 321.923 628.604 370.685 667.526 342.272C698.373 319.753 704 251.531 704 251.531C704 251.531 694.097 189.12 673.753 155.453C652.153 119.707 638.293 73.0126 597.246 80.7255C568.27 86.1703 574.226 134.003 544.759 134.992C509.401 136.179 489.019 89.6216 492.272 61.154C495.526 32.6863 434.145 18.215 398.863 32.6864C376.815 41.7294 378.922 69.218 356.161 76.2774C326.215 85.5657 312.778 47.7101 281.434 46.9202C245.575 46.0165 217.637 52.0933 196.031 80.7255Z" stroke="black" stroke-opacity="0.6"/>
<path id="v4" d="M200.843 85.2647C183.396 108.385 214.351 151.433 186.131 157.96C169.782 161.742 161.894 140.747 145.456 144.113C123.668 148.575 159.907 206.522 111.704 189.981C63.5011 173.44 38.567 166.528 57.1823 225.463C66.2846 254.761 111.143 261.793 123.82 298.159C137.702 337.983 99.5881 328.449 111.704 405.472C123.82 482.494 326.356 396.693 347.965 434.896C359.376 455.071 469.45 426.766 463.932 389.029C471.012 343.838 492.902 335.263 540.089 327.583C587.276 319.904 621.654 367.34 659.518 339.699C689.526 317.793 695 251.426 695 251.426C695 251.426 685.366 190.712 665.576 157.96C644.563 123.187 631.08 77.7615 591.149 85.2647C562.961 90.5614 568.755 137.093 540.089 138.056C505.692 139.21 485.864 93.9189 489.029 66.2253C492.194 38.5317 432.483 24.4539 398.16 38.5317C376.711 47.3289 378.761 74.0701 356.619 80.9375C327.487 89.9732 314.415 53.1469 283.923 52.3785C249.04 51.4995 221.862 57.411 200.843 85.2647Z" stroke="#7E7E7E" stroke-opacity="0.37" stroke-width="0.865424"/>
<path id="v5" d="M211.234 93.2619C194.789 115.054 223.965 155.629 197.367 161.781C181.958 165.345 174.523 145.557 159.029 148.73C138.493 152.935 172.65 207.553 127.216 191.962C81.7829 176.371 58.2813 169.856 75.8271 225.406C84.4064 253.02 126.688 259.648 138.636 293.925C151.721 331.461 115.797 322.474 127.216 395.072C138.636 467.669 329.536 386.798 349.903 422.806C360.659 441.821 464.409 415.142 459.207 379.574C465.881 336.98 486.513 328.897 530.989 321.659C575.465 314.421 607.868 359.131 643.556 333.078C671.841 312.431 677 249.877 677 249.877C677 249.877 667.92 192.651 649.266 161.781C629.461 129.005 616.752 86.1898 579.116 93.2619C552.547 98.2543 558.008 142.113 530.989 143.02C498.568 144.108 479.88 101.419 482.863 75.3164C485.846 49.2139 429.565 35.9449 397.214 49.2139C376.998 57.5056 378.93 82.7105 358.06 89.1834C330.602 97.6999 318.281 62.9894 289.541 62.2652C256.662 61.4366 231.045 67.0086 211.234 93.2619Z" stroke="black" stroke-width="0.815703"/>
<path id="v6" d="M223.833 105.285C208.715 125.318 235.537 162.617 211.085 168.273C196.92 171.549 190.085 153.358 175.842 156.275C156.964 160.141 188.364 210.35 146.598 196.018C104.832 181.685 83.2273 175.696 99.3567 226.762C107.243 252.147 146.112 258.24 157.096 289.75C169.124 324.256 136.1 315.995 146.598 382.732C157.096 449.469 332.585 375.125 351.308 408.227C361.195 425.707 456.57 401.182 451.789 368.484C457.923 329.329 476.89 321.898 517.776 315.245C558.661 308.591 588.449 349.692 621.256 325.743C647.257 306.762 652 249.257 652 249.257C652 249.257 643.653 196.651 626.505 168.273C608.298 138.143 596.616 98.784 562.017 105.285C537.593 109.875 542.613 150.193 517.776 151.026C487.972 152.027 470.792 112.784 473.535 88.7884C476.277 64.793 424.539 52.5951 394.8 64.793C376.216 72.4154 377.992 95.5856 358.807 101.536C333.564 109.365 322.239 77.4565 295.819 76.7907C265.594 76.029 242.045 81.1512 223.833 105.285Z" stroke="black" stroke-width="0.749855"/>
<path id="v7" d="M225.437 106.798C210.482 126.616 237.015 163.514 212.826 169.109C198.814 172.35 192.052 154.355 177.962 157.24C159.287 161.065 190.349 210.733 149.032 196.555C107.715 182.377 86.3431 176.452 102.299 226.969C110.101 252.081 148.551 258.108 159.417 289.279C171.316 323.414 138.647 315.242 149.032 381.261C159.417 447.281 333.02 373.737 351.541 406.482C361.322 423.775 455.672 399.513 450.941 367.167C457.01 328.433 475.773 321.082 516.219 314.5C556.665 307.918 586.132 348.577 618.587 324.885C644.308 306.109 649 249.222 649 249.222C649 249.222 640.743 197.182 623.779 169.109C605.768 139.303 594.211 100.367 559.985 106.798C535.824 111.338 540.79 151.223 516.219 152.048C486.736 153.037 469.741 114.216 472.453 90.4789C475.166 66.7415 423.985 54.6747 394.565 66.7415C376.181 74.2819 377.938 97.2029 358.959 103.089C333.989 110.834 322.785 79.2688 296.649 78.6102C266.749 77.8567 243.453 82.9238 225.437 106.798Z" stroke="#7E7E7E" stroke-opacity="0.37" stroke-width="2"/>
<path id="v8" d="M242.545 121.604C229.325 139.124 252.781 171.744 231.397 176.69C219.009 179.556 213.032 163.647 200.575 166.198C184.066 169.579 211.526 213.489 174.999 200.955C138.473 188.42 119.579 183.183 133.685 227.842C140.582 250.043 174.574 255.371 184.18 282.928C194.7 313.105 165.818 305.88 174.999 364.246C184.18 422.611 337.655 357.594 354.029 386.542C362.676 401.83 446.086 380.381 441.905 351.786C447.27 317.542 463.858 311.044 499.614 305.225C535.371 299.406 561.421 335.351 590.113 314.406C612.852 297.806 617 247.515 617 247.515C617 247.515 609.7 201.508 594.703 176.69C578.78 150.34 568.564 115.919 538.306 121.604C516.945 125.618 521.336 160.878 499.614 161.607C473.549 162.482 458.524 128.162 460.923 107.177C463.321 86.1917 418.074 75.5241 392.065 86.1918C375.812 92.8579 377.365 113.121 360.587 118.325C338.512 125.172 328.607 97.2666 305.501 96.6844C279.068 96.0182 258.473 100.498 242.545 121.604Z" stroke="black" stroke-width="0.6"/>
<path id="v9" d="M264.164 140.193C253.083 154.877 272.743 182.216 254.821 186.361C244.438 188.763 239.428 175.429 228.988 177.567C215.151 180.401 238.166 217.203 207.553 206.698C176.939 196.192 161.104 191.803 172.926 229.232C178.707 247.839 207.196 252.305 215.247 275.401C224.064 300.693 199.858 294.638 207.553 343.554C215.247 392.471 343.877 337.979 357.6 362.241C364.848 375.054 434.755 357.078 431.25 333.111C435.747 304.411 449.649 298.965 479.617 294.088C509.585 289.211 531.418 319.337 555.465 301.783C574.524 287.87 578 245.721 578 245.721C578 245.721 571.882 207.162 559.313 186.361C545.968 164.277 537.405 135.428 512.045 140.193C494.143 143.557 497.822 173.109 479.617 173.72C457.772 174.453 445.179 145.689 447.189 128.101C449.199 110.513 411.277 101.572 389.479 110.513C375.857 116.1 377.159 133.083 363.097 137.445C344.595 143.183 336.293 119.795 316.928 119.307C294.774 118.749 277.513 122.503 264.164 140.193Z" stroke="#7E7E7E" stroke-opacity="0.37" stroke-width="0.549625"/>
<path id="v10" d="M272.719 147.596C262.505 161.131 280.626 186.331 264.106 190.152C254.536 192.366 249.918 180.075 240.295 182.046C227.54 184.658 248.755 218.581 220.536 208.897C192.318 199.214 177.722 195.168 188.619 229.669C193.948 246.82 220.208 250.936 227.629 272.225C235.756 295.538 213.444 289.957 220.536 335.046C227.629 380.136 346.195 329.907 358.844 352.271C365.525 364.082 429.962 347.512 426.732 325.42C430.877 298.966 443.691 293.946 471.315 289.45C498.938 284.955 519.063 312.724 541.228 296.543C558.796 283.719 562 244.867 562 244.867C562 244.867 556.36 209.325 544.775 190.152C532.474 169.796 524.581 143.204 501.205 147.596C484.704 150.697 488.095 177.937 471.315 178.5C451.178 179.176 439.571 152.662 441.424 136.45C443.277 120.238 408.321 111.997 388.228 120.238C375.673 125.388 376.872 141.043 363.911 145.063C346.856 150.352 339.204 128.794 321.354 128.344C300.933 127.83 285.023 131.29 272.719 147.596Z" stroke="black" stroke-width="0.506623"/>
<path id="v11" d="M289.293 162.564C280.759 173.873 295.9 194.929 282.096 198.122C274.1 199.971 270.242 189.702 262.201 191.349C251.544 193.531 269.27 221.875 245.692 213.784C222.115 205.693 209.919 202.313 219.024 231.14C223.476 245.47 245.418 248.91 251.618 266.697C258.409 286.177 239.766 281.513 245.692 319.187C251.618 356.861 350.685 314.893 361.255 333.58C366.836 343.448 420.677 329.603 417.977 311.144C421.441 289.04 432.148 284.846 455.228 281.09C478.309 277.334 495.124 300.536 513.645 287.016C528.323 276.301 531 243.839 531 243.839C531 243.839 526.288 214.142 516.608 198.122C506.33 181.113 499.735 158.894 480.203 162.564C466.416 165.155 469.25 187.915 455.228 188.386C438.404 188.951 428.705 166.797 430.253 153.252C431.801 139.706 402.595 132.82 385.806 139.706C375.315 144.009 376.318 157.089 365.488 160.448C351.238 164.867 344.844 146.854 329.93 146.479C312.867 146.049 299.574 148.94 289.293 162.564Z" stroke="#7E7E7E" stroke-opacity="0.37" stroke-width="0.423305"/>
<path id="v12" d="M295.708 168.616C287.825 179.064 301.812 198.516 289.061 201.465C281.673 203.174 278.109 193.687 270.681 195.208C260.836 197.224 277.211 223.408 255.43 215.934C233.649 208.46 222.382 205.336 230.794 231.967C234.907 245.206 255.176 248.383 260.905 264.816C267.178 282.811 249.955 278.503 255.43 313.306C260.905 348.11 352.423 309.34 362.188 326.602C367.344 335.718 417.082 322.928 414.589 305.876C417.788 285.456 427.679 281.581 449.001 278.111C470.323 274.641 485.858 296.076 502.967 283.586C516.527 273.688 519 243.699 519 243.699C519 243.699 514.647 216.264 505.704 201.465C496.209 185.752 490.117 165.226 472.074 168.616C459.336 171.01 461.954 192.036 449.001 192.471C433.459 192.993 424.499 172.527 425.929 160.013C427.359 147.5 400.378 141.138 384.869 147.5C375.177 151.475 376.103 163.558 366.098 166.661C352.934 170.744 347.028 154.104 333.25 153.756C317.487 153.359 305.206 156.03 295.708 168.616Z" stroke="black" stroke-width="0.391054"/>
<path id="v13" d="M306.703 178.127C299.985 187.03 311.905 203.608 301.038 206.121C294.742 207.578 291.705 199.493 285.374 200.789C276.984 202.507 290.939 224.822 272.377 218.452C253.814 212.082 244.212 209.421 251.381 232.116C254.886 243.399 272.161 246.107 277.042 260.111C282.388 275.447 267.711 271.775 272.377 301.436C277.042 331.097 355.038 298.056 363.359 312.767C367.754 320.536 410.142 309.636 408.017 295.104C410.744 277.702 419.174 274.399 437.345 271.442C455.516 268.485 468.755 286.752 483.336 276.108C494.892 267.672 497 242.114 497 242.114C497 242.114 493.29 218.734 485.669 206.121C477.577 192.73 472.385 175.237 457.008 178.127C446.153 180.166 448.384 198.086 437.345 198.456C424.099 198.901 416.463 181.459 417.682 170.795C418.901 160.13 395.906 154.709 382.689 160.13C374.429 163.518 375.218 173.816 366.692 176.46C355.473 179.94 350.439 165.758 338.697 165.463C325.264 165.124 314.798 167.401 306.703 178.127Z" stroke="#7E7E7E" stroke-opacity="0.37" stroke-width="0.333269"/>
<path id="v14" d="M316.025 186.449C310.2 194.167 320.535 208.539 311.113 210.718C305.656 211.981 303.022 204.971 297.534 206.095C290.26 207.585 302.359 226.931 286.266 221.408C270.174 215.886 261.849 213.578 268.064 233.254C271.103 243.035 286.079 245.383 290.311 257.524C294.946 270.819 282.221 267.636 286.266 293.35C290.311 319.064 357.928 290.419 365.142 303.173C368.952 309.909 405.7 300.459 403.858 287.86C406.221 272.774 413.529 269.911 429.283 267.347C445.036 264.783 456.513 280.62 469.154 271.392C479.173 264.078 481 241.922 481 241.922C481 241.922 477.784 221.652 471.177 210.718C464.161 199.109 459.66 183.944 446.329 186.449C436.919 188.217 438.853 203.752 429.283 204.073C417.799 204.458 411.18 189.338 412.236 180.092C413.293 170.847 393.358 166.147 381.9 170.847C374.739 173.784 375.423 182.711 368.031 185.004C358.305 188.021 353.941 175.726 343.762 175.47C332.116 175.176 323.042 177.15 316.025 186.449Z" stroke="black" stroke-width="0.288923"/>
<path id="v15" d="M328.857 197.553C324.332 203.549 332.36 214.712 325.042 216.404C320.802 217.385 318.757 211.941 314.494 212.814C308.844 213.971 318.241 228.997 305.742 224.708C293.242 220.418 286.776 218.626 291.603 233.909C293.964 241.506 305.596 243.33 308.883 252.76C312.483 263.087 302.6 260.615 305.742 280.588C308.883 300.561 361.405 278.312 367.008 288.218C369.967 293.45 398.511 286.11 397.08 276.324C398.916 264.606 404.593 262.382 416.829 260.39C429.065 258.399 437.98 270.7 447.799 263.532C455.581 257.852 457 240.642 457 240.642C457 240.642 454.502 224.897 449.37 216.404C443.921 207.387 440.424 195.607 430.07 197.553C422.76 198.927 424.262 210.993 416.829 211.243C407.909 211.542 402.768 199.797 403.588 192.616C404.409 185.434 388.925 181.784 380.024 185.434C374.462 187.716 374.994 194.65 369.252 196.431C361.698 198.774 358.308 189.224 350.401 189.025C341.355 188.797 334.307 190.33 328.857 197.553Z" stroke="#7E7E7E" stroke-opacity="0.37" stroke-width="0.224419"/>
</svg>
